<mxfile host="65bd71144e">
    <diagram id="JgmgCKd6XLoXhJxxk2tt" name="Pagina-1">
        <mxGraphModel dx="692" dy="427" grid="1" gridSize="10" guides="1" tooltips="1" connect="1" arrows="1" fold="1" page="1" pageScale="1" pageWidth="827" pageHeight="1169" math="0" shadow="0">
            <root>
                <mxCell id="0"/>
                <mxCell id="1" parent="0"/>
                <mxCell id="21" value="Configure Development System" style="strokeWidth=1;shadow=0;dashed=0;align=center;html=1;shape=mxgraph.mockup.containers.window;align=left;verticalAlign=top;spacingLeft=8;strokeColor2=#008cff;strokeColor3=#c4c4c4;fontColor=#666666;mainText=;fontSize=17;labelBackgroundColor=none;whiteSpace=wrap;" parent="1" vertex="1">
                    <mxGeometry x="50" y="60" width="530" height="450" as="geometry"/>
                </mxCell>
                <mxCell id="22" value="Confirm" style="strokeWidth=1;shadow=0;dashed=0;align=center;html=1;shape=mxgraph.mockup.buttons.button;strokeColor=#2D7600;fontColor=#ffffff;mainText=;buttonStyle=round;fontSize=17;fontStyle=1;fillColor=#60a917;whiteSpace=wrap;" parent="1" vertex="1">
                    <mxGeometry x="240" y="426" width="150" height="50" as="geometry"/>
                </mxCell>
                <mxCell id="30" value="Production system IP address :" style="text;html=1;strokeColor=none;fillColor=none;align=left;verticalAlign=middle;whiteSpace=wrap;rounded=0;" parent="1" vertex="1">
                    <mxGeometry x="100" y="328" width="210" height="30" as="geometry"/>
                </mxCell>
                <mxCell id="31" value="&lt;i style=&quot;border-color: var(--border-color);&quot;&gt;&lt;font style=&quot;border-color: var(--border-color);&quot;&gt;192.168.1.13&lt;/font&gt;&lt;/i&gt;" style="rounded=0;whiteSpace=wrap;html=1;fontColor=#000000;" parent="1" vertex="1">
                    <mxGeometry x="310" y="335.5" width="190" height="15" as="geometry"/>
                </mxCell>
                <mxCell id="32" value="Messaging system IP address :" style="text;html=1;strokeColor=none;fillColor=none;align=left;verticalAlign=middle;whiteSpace=wrap;rounded=0;" parent="1" vertex="1">
                    <mxGeometry x="100" y="363" width="210" height="30" as="geometry"/>
                </mxCell>
                <mxCell id="33" value="&lt;i style=&quot;border-color: var(--border-color);&quot;&gt;&lt;font style=&quot;border-color: var(--border-color);&quot;&gt;192.168.1.16&lt;/font&gt;&lt;/i&gt;" style="rounded=0;whiteSpace=wrap;html=1;fontColor=#000000;" parent="1" vertex="1">
                    <mxGeometry x="310" y="370.5" width="190" height="15" as="geometry"/>
                </mxCell>
                <mxCell id="71" value="" style="group" parent="1" vertex="1" connectable="0">
                    <mxGeometry x="100" y="114" width="400" height="90" as="geometry"/>
                </mxCell>
                <mxCell id="57" value="1" style="strokeWidth=1;shadow=0;dashed=0;align=center;html=1;shape=mxgraph.mockup.forms.uRect;fontSize=17;fontColor=#666666;align=left;spacingLeft=5;strokeColor=#666666;fillColor=#FFFFFF;container=0;" parent="71" vertex="1">
                    <mxGeometry x="166.66666666666669" y="30" width="77.77777777777779" height="30" as="geometry"/>
                </mxCell>
                <mxCell id="59" value="10" style="strokeWidth=1;shadow=0;dashed=0;align=center;html=1;shape=mxgraph.mockup.forms.uRect;fontSize=17;fontColor=#666666;align=left;spacingLeft=5;strokeColor=#666666;fillColor=#FFFFFF;container=0;" parent="71" vertex="1">
                    <mxGeometry x="322.22222222222223" y="30" width="77.77777777777779" height="30" as="geometry"/>
                </mxCell>
                <mxCell id="60" value="1" style="strokeWidth=1;shadow=0;dashed=0;align=center;html=1;shape=mxgraph.mockup.forms.uRect;fontSize=17;fontColor=#666666;align=left;spacingLeft=5;strokeColor=#666666;fillColor=#FFFFFF;container=0;" parent="71" vertex="1">
                    <mxGeometry x="244.44444444444446" y="30" width="77.77777777777779" height="30" as="geometry"/>
                </mxCell>
                <mxCell id="61" value="8" style="strokeWidth=1;shadow=0;dashed=0;align=center;html=1;shape=mxgraph.mockup.forms.uRect;fontSize=17;fontColor=#666666;align=left;spacingLeft=5;strokeColor=#666666;fillColor=#FFFFFF;container=0;" parent="71" vertex="1">
                    <mxGeometry x="166.66666666666669" y="60" width="77.77777777777779" height="30" as="geometry"/>
                </mxCell>
                <mxCell id="62" value="512" style="strokeWidth=1;shadow=0;dashed=0;align=center;html=1;shape=mxgraph.mockup.forms.uRect;fontSize=17;fontColor=#666666;align=left;spacingLeft=5;strokeColor=#666666;fillColor=#FFFFFF;container=0;" parent="71" vertex="1">
                    <mxGeometry x="322.22222222222223" y="60" width="77.77777777777779" height="30" as="geometry"/>
                </mxCell>
                <mxCell id="63" value="16" style="strokeWidth=1;shadow=0;dashed=0;align=center;html=1;shape=mxgraph.mockup.forms.uRect;fontSize=17;fontColor=#666666;align=left;spacingLeft=5;strokeColor=#666666;fillColor=#FFFFFF;container=0;" parent="71" vertex="1">
                    <mxGeometry x="244.44444444444446" y="60" width="77.77777777777779" height="30" as="geometry"/>
                </mxCell>
                <mxCell id="64" value="" style="endArrow=none;html=1;exitX=0;exitY=1;exitDx=0;exitDy=0;exitPerimeter=0;entryX=1;entryY=1;entryDx=0;entryDy=0;entryPerimeter=0;" parent="71" source="61" target="62" edge="1">
                    <mxGeometry width="50" height="50" relative="1" as="geometry">
                        <mxPoint x="266.6666666666667" y="160" as="sourcePoint"/>
                        <mxPoint x="322.22222222222223" y="110" as="targetPoint"/>
                    </mxGeometry>
                </mxCell>
                <mxCell id="65" value="min" style="strokeWidth=1;shadow=0;dashed=0;align=center;html=1;shape=mxgraph.mockup.forms.uRect;fontSize=17;fontColor=#666666;align=left;spacingLeft=5;strokeColor=#666666;fillColor=#FFFFFF;container=0;" parent="71" vertex="1">
                    <mxGeometry x="166.66666666666669" width="77.77777777777779" height="30" as="geometry"/>
                </mxCell>
                <mxCell id="66" value="max" style="strokeWidth=1;shadow=0;dashed=0;align=center;html=1;shape=mxgraph.mockup.forms.uRect;fontSize=17;fontColor=#666666;align=left;spacingLeft=5;strokeColor=#666666;fillColor=#FFFFFF;container=0;" parent="71" vertex="1">
                    <mxGeometry x="322.22222222222223" width="77.77777777777779" height="30" as="geometry"/>
                </mxCell>
                <mxCell id="67" value="step" style="strokeWidth=1;shadow=0;dashed=0;align=center;html=1;shape=mxgraph.mockup.forms.uRect;fontSize=17;fontColor=#666666;align=left;spacingLeft=5;strokeColor=#666666;fillColor=#FFFFFF;container=0;" parent="71" vertex="1">
                    <mxGeometry x="244.44444444444446" width="77.77777777777779" height="30" as="geometry"/>
                </mxCell>
                <mxCell id="68" value="Layers" style="whiteSpace=wrap;html=1;fillColor=#FFFFFF;container=0;" parent="71" vertex="1">
                    <mxGeometry y="30" width="166.66666666666669" height="30" as="geometry"/>
                </mxCell>
                <mxCell id="69" value="Neurons" style="whiteSpace=wrap;html=1;fillColor=#FFFFFF;container=0;" parent="71" vertex="1">
                    <mxGeometry y="60" width="166.66666666666669" height="30" as="geometry"/>
                </mxCell>
                <mxCell id="70" value="Hyperparameters" style="whiteSpace=wrap;html=1;fillColor=#FFFFFF;container=0;" parent="71" vertex="1">
                    <mxGeometry width="166.66666666666669" height="30" as="geometry"/>
                </mxCell>
                <mxCell id="72" value="Overfitting Threshold :" style="text;html=1;strokeColor=none;fillColor=none;align=left;verticalAlign=middle;whiteSpace=wrap;rounded=0;" parent="1" vertex="1">
                    <mxGeometry x="100" y="258" width="210" height="30" as="geometry"/>
                </mxCell>
                <mxCell id="73" value="&lt;i style=&quot;border-color: var(--border-color);&quot;&gt;&lt;font style=&quot;border-color: var(--border-color);&quot;&gt;0.07&lt;/font&gt;&lt;/i&gt;" style="rounded=0;whiteSpace=wrap;html=1;fontColor=#000000;" parent="1" vertex="1">
                    <mxGeometry x="310" y="265.5" width="190" height="15" as="geometry"/>
                </mxCell>
                <mxCell id="74" value="Initial #Iterations :" style="text;html=1;strokeColor=none;fillColor=none;align=left;verticalAlign=middle;whiteSpace=wrap;rounded=0;" parent="1" vertex="1">
                    <mxGeometry x="100" y="223" width="210" height="30" as="geometry"/>
                </mxCell>
                <mxCell id="75" value="&lt;i style=&quot;border-color: var(--border-color);&quot;&gt;&lt;font style=&quot;border-color: var(--border-color);&quot;&gt;100&lt;/font&gt;&lt;/i&gt;" style="rounded=0;whiteSpace=wrap;html=1;fontColor=#000000;" parent="1" vertex="1">
                    <mxGeometry x="310" y="230.5" width="190" height="15" as="geometry"/>
                </mxCell>
                <mxCell id="76" value="Generalization Tolerance :" style="text;html=1;strokeColor=none;fillColor=none;align=left;verticalAlign=middle;whiteSpace=wrap;rounded=0;" parent="1" vertex="1">
                    <mxGeometry x="100" y="292" width="210" height="30" as="geometry"/>
                </mxCell>
                <mxCell id="77" value="&lt;i style=&quot;border-color: var(--border-color);&quot;&gt;&lt;font style=&quot;border-color: var(--border-color);&quot;&gt;0.1&lt;/font&gt;&lt;/i&gt;" style="rounded=0;whiteSpace=wrap;html=1;fontColor=#000000;" parent="1" vertex="1">
                    <mxGeometry x="310" y="299.5" width="190" height="15" as="geometry"/>
                </mxCell>
            </root>
        </mxGraphModel>
    </diagram>
</mxfile>